<mxfile host="app.diagrams.net" modified="2022-02-19T04:02:05.359Z" agent="5.0 (Windows NT 10.0; Win64; x64) AppleWebKit/537.36 (KHTML, like Gecko) Chrome/97.0.4692.99 Safari/537.36 OPR/83.0.4254.62" etag="8QntsUOj4hD3SQ51ILq_" version="16.5.6" type="github">
  <diagram id="kgpKYQtTHZ0yAKxKKP6v" name="Page-1">
    <mxGraphModel dx="1233" dy="1540" grid="1" gridSize="10" guides="1" tooltips="1" connect="1" arrows="1" fold="1" page="1" pageScale="1" pageWidth="850" pageHeight="1100" math="0" shadow="0">
      <root>
        <mxCell id="0" />
        <mxCell id="1" parent="0" />
        <mxCell id="5q7rxbdqiVcTN_8Q1Ob2-12" value="Loop" style="shape=umlFrame;whiteSpace=wrap;html=1;" vertex="1" parent="1">
          <mxGeometry x="10" y="-30" width="1070" height="580" as="geometry" />
        </mxCell>
        <mxCell id="3nuBFxr9cyL0pnOWT2aG-1" value=":Main" style="shape=umlLifeline;perimeter=lifelinePerimeter;container=1;collapsible=0;recursiveResize=0;rounded=0;shadow=0;strokeWidth=1;" parent="1" vertex="1">
          <mxGeometry x="20" y="80" width="100" height="630" as="geometry" />
        </mxCell>
        <mxCell id="3nuBFxr9cyL0pnOWT2aG-2" value="" style="points=[];perimeter=orthogonalPerimeter;rounded=0;shadow=0;strokeWidth=1;" parent="3nuBFxr9cyL0pnOWT2aG-1" vertex="1">
          <mxGeometry x="45" y="70" width="10" height="20" as="geometry" />
        </mxCell>
        <mxCell id="3nuBFxr9cyL0pnOWT2aG-3" value="Input" style="verticalAlign=bottom;startArrow=oval;endArrow=block;startSize=8;shadow=0;strokeWidth=1;" parent="3nuBFxr9cyL0pnOWT2aG-1" target="3nuBFxr9cyL0pnOWT2aG-2" edge="1">
          <mxGeometry x="-0.1667" relative="1" as="geometry">
            <mxPoint x="-15" y="70" as="sourcePoint" />
            <mxPoint as="offset" />
          </mxGeometry>
        </mxCell>
        <mxCell id="9EuFA9lxJS0PykdGBQlW-19" value="" style="points=[];perimeter=orthogonalPerimeter;rounded=0;shadow=0;strokeWidth=1;" parent="3nuBFxr9cyL0pnOWT2aG-1" vertex="1">
          <mxGeometry x="50" y="400" width="10" height="20" as="geometry" />
        </mxCell>
        <mxCell id="9EuFA9lxJS0PykdGBQlW-20" value="Input" style="verticalAlign=bottom;startArrow=oval;endArrow=block;startSize=8;shadow=0;strokeWidth=1;exitX=0.5;exitY=0.69;exitDx=0;exitDy=0;exitPerimeter=0;" parent="3nuBFxr9cyL0pnOWT2aG-1" target="9EuFA9lxJS0PykdGBQlW-19" edge="1">
          <mxGeometry x="-0.1667" relative="1" as="geometry">
            <mxPoint x="-40" y="400.20000000000005" as="sourcePoint" />
            <mxPoint as="offset" />
          </mxGeometry>
        </mxCell>
        <mxCell id="3nuBFxr9cyL0pnOWT2aG-5" value=":Reader" style="shape=umlLifeline;perimeter=lifelinePerimeter;container=1;collapsible=0;recursiveResize=0;rounded=0;shadow=0;strokeWidth=1;" parent="1" vertex="1">
          <mxGeometry x="300" y="80" width="100" height="600" as="geometry" />
        </mxCell>
        <mxCell id="3nuBFxr9cyL0pnOWT2aG-6" value="" style="points=[];perimeter=orthogonalPerimeter;rounded=0;shadow=0;strokeWidth=1;" parent="3nuBFxr9cyL0pnOWT2aG-5" vertex="1">
          <mxGeometry x="45" y="70" width="10" height="90" as="geometry" />
        </mxCell>
        <mxCell id="Wa7YtOmpZMIhRV8Ab6Mp-7" value="" style="html=1;points=[];perimeter=orthogonalPerimeter;" parent="3nuBFxr9cyL0pnOWT2aG-5" vertex="1">
          <mxGeometry x="45" y="120" width="10" height="10" as="geometry" />
        </mxCell>
        <mxCell id="5q7rxbdqiVcTN_8Q1Ob2-3" value="&lt;span style=&quot;color: rgb(0 , 0 , 0) ; font-family: &amp;#34;helvetica&amp;#34; ; font-size: 11px ; font-style: normal ; font-weight: 400 ; letter-spacing: normal ; text-align: center ; text-indent: 0px ; text-transform: none ; word-spacing: 0px ; background-color: rgb(255 , 255 , 255) ; display: inline ; float: none&quot;&gt;searchFunction()&lt;/span&gt;" style="text;whiteSpace=wrap;html=1;" vertex="1" parent="3nuBFxr9cyL0pnOWT2aG-5">
          <mxGeometry x="60" y="470" width="100" height="30" as="geometry" />
        </mxCell>
        <mxCell id="5q7rxbdqiVcTN_8Q1Ob2-18" value="" style="html=1;points=[];perimeter=orthogonalPerimeter;" vertex="1" parent="3nuBFxr9cyL0pnOWT2aG-5">
          <mxGeometry x="45" y="80" width="10" height="70" as="geometry" />
        </mxCell>
        <mxCell id="5q7rxbdqiVcTN_8Q1Ob2-19" value="caseReader(Scan: Scanner)" style="edgeStyle=orthogonalEdgeStyle;html=1;align=left;spacingLeft=2;endArrow=block;rounded=0;entryX=1;entryY=0;" edge="1" target="5q7rxbdqiVcTN_8Q1Ob2-18" parent="3nuBFxr9cyL0pnOWT2aG-5">
          <mxGeometry relative="1" as="geometry">
            <mxPoint x="50" y="70" as="sourcePoint" />
            <Array as="points">
              <mxPoint x="80" y="70" />
            </Array>
          </mxGeometry>
        </mxCell>
        <mxCell id="5q7rxbdqiVcTN_8Q1Ob2-20" value="" style="html=1;points=[];perimeter=orthogonalPerimeter;" vertex="1" parent="3nuBFxr9cyL0pnOWT2aG-5">
          <mxGeometry x="45" y="100" width="10" height="20" as="geometry" />
        </mxCell>
        <mxCell id="5q7rxbdqiVcTN_8Q1Ob2-21" value="callFunction()" style="edgeStyle=orthogonalEdgeStyle;html=1;align=left;spacingLeft=2;endArrow=block;rounded=0;entryX=1;entryY=0;" edge="1" target="5q7rxbdqiVcTN_8Q1Ob2-20" parent="3nuBFxr9cyL0pnOWT2aG-5">
          <mxGeometry relative="1" as="geometry">
            <mxPoint x="50" y="80" as="sourcePoint" />
            <Array as="points">
              <mxPoint x="80" y="80" />
            </Array>
          </mxGeometry>
        </mxCell>
        <mxCell id="3nuBFxr9cyL0pnOWT2aG-8" value="Scanner" style="verticalAlign=bottom;endArrow=block;entryX=0;entryY=0;shadow=0;strokeWidth=1;" parent="1" source="3nuBFxr9cyL0pnOWT2aG-2" target="3nuBFxr9cyL0pnOWT2aG-6" edge="1">
          <mxGeometry relative="1" as="geometry">
            <mxPoint x="275" y="160" as="sourcePoint" />
          </mxGeometry>
        </mxCell>
        <mxCell id="Wa7YtOmpZMIhRV8Ab6Mp-1" value=":FunctionStorage" style="shape=umlLifeline;perimeter=lifelinePerimeter;container=1;collapsible=0;recursiveResize=0;rounded=0;shadow=0;strokeWidth=1;" parent="1" vertex="1">
          <mxGeometry x="510" y="75" width="100" height="610" as="geometry" />
        </mxCell>
        <mxCell id="Wa7YtOmpZMIhRV8Ab6Mp-26" value="" style="html=1;points=[];perimeter=orthogonalPerimeter;" parent="Wa7YtOmpZMIhRV8Ab6Mp-1" vertex="1">
          <mxGeometry x="44" y="165" width="10" height="55" as="geometry" />
        </mxCell>
        <mxCell id="Wa7YtOmpZMIhRV8Ab6Mp-9" value="" style="html=1;points=[];perimeter=orthogonalPerimeter;" parent="Wa7YtOmpZMIhRV8Ab6Mp-1" vertex="1">
          <mxGeometry x="45" y="130" width="10" height="20" as="geometry" />
        </mxCell>
        <mxCell id="Wa7YtOmpZMIhRV8Ab6Mp-27" value="stackCreator(name, scan)" style="edgeStyle=orthogonalEdgeStyle;html=1;align=left;spacingLeft=2;endArrow=block;rounded=0;entryX=1;entryY=0;" parent="Wa7YtOmpZMIhRV8Ab6Mp-1" target="Wa7YtOmpZMIhRV8Ab6Mp-26" edge="1">
          <mxGeometry relative="1" as="geometry">
            <mxPoint x="45" y="150" as="sourcePoint" />
            <Array as="points">
              <mxPoint x="75" y="150" />
              <mxPoint x="75" y="165" />
            </Array>
          </mxGeometry>
        </mxCell>
        <mxCell id="9EuFA9lxJS0PykdGBQlW-28" value="" style="html=1;points=[];perimeter=orthogonalPerimeter;" parent="Wa7YtOmpZMIhRV8Ab6Mp-1" vertex="1">
          <mxGeometry x="44" y="490" width="10" height="50" as="geometry" />
        </mxCell>
        <mxCell id="5q7rxbdqiVcTN_8Q1Ob2-4" value="" style="html=1;points=[];perimeter=orthogonalPerimeter;" vertex="1" parent="Wa7YtOmpZMIhRV8Ab6Mp-1">
          <mxGeometry x="44" y="195" width="10" height="15" as="geometry" />
        </mxCell>
        <mxCell id="5q7rxbdqiVcTN_8Q1Ob2-5" value="createFunction(nameFunction, stack)" style="edgeStyle=orthogonalEdgeStyle;html=1;align=left;spacingLeft=2;endArrow=block;rounded=0;entryX=1;entryY=0;" edge="1" target="5q7rxbdqiVcTN_8Q1Ob2-4" parent="Wa7YtOmpZMIhRV8Ab6Mp-1">
          <mxGeometry relative="1" as="geometry">
            <mxPoint x="54" y="175" as="sourcePoint" />
            <Array as="points">
              <mxPoint x="80" y="175" />
              <mxPoint x="80" y="195" />
            </Array>
            <mxPoint as="offset" />
          </mxGeometry>
        </mxCell>
        <mxCell id="Wa7YtOmpZMIhRV8Ab6Mp-10" value="searchFunction(scanner)" style="html=1;verticalAlign=bottom;startArrow=oval;endArrow=block;startSize=8;rounded=0;exitX=1.4;exitY=0.586;exitDx=0;exitDy=0;exitPerimeter=0;" parent="1" target="Wa7YtOmpZMIhRV8Ab6Mp-9" edge="1" source="5q7rxbdqiVcTN_8Q1Ob2-18">
          <mxGeometry relative="1" as="geometry">
            <mxPoint x="350" y="210" as="sourcePoint" />
          </mxGeometry>
        </mxCell>
        <mxCell id="5q7rxbdqiVcTN_8Q1Ob2-22" style="edgeStyle=orthogonalEdgeStyle;rounded=0;orthogonalLoop=1;jettySize=auto;html=1;" edge="1" parent="1" source="Wa7YtOmpZMIhRV8Ab6Mp-13">
          <mxGeometry relative="1" as="geometry">
            <mxPoint x="450" y="170" as="targetPoint" />
          </mxGeometry>
        </mxCell>
        <mxCell id="Wa7YtOmpZMIhRV8Ab6Mp-13" value="«Annotation»&lt;br&gt;&lt;b&gt;Caso en el que se detecta &lt;br&gt;el ingreso de una función&lt;/b&gt;" style="html=1;dropTarget=0;" parent="1" vertex="1">
          <mxGeometry x="630" y="90" width="160" height="90" as="geometry" />
        </mxCell>
        <mxCell id="Wa7YtOmpZMIhRV8Ab6Mp-14" value="" style="shape=module;jettyWidth=8;jettyHeight=4;" parent="Wa7YtOmpZMIhRV8Ab6Mp-13" vertex="1">
          <mxGeometry x="1" width="20" height="20" relative="1" as="geometry">
            <mxPoint x="-27" y="7" as="offset" />
          </mxGeometry>
        </mxCell>
        <mxCell id="R9P6kDvlkgEmbngEEbAk-14" value="CREACIÓN Y ALMACENAMIENTO DE 1 FUNCIÓN" style="text;align=center;fontStyle=1;verticalAlign=middle;spacingLeft=3;spacingRight=3;strokeColor=none;rotatable=0;points=[[0,0.5],[1,0.5]];portConstraint=eastwest;" parent="1" vertex="1">
          <mxGeometry x="30" y="-120" width="280" height="26" as="geometry" />
        </mxCell>
        <mxCell id="9EuFA9lxJS0PykdGBQlW-21" value="" style="points=[];perimeter=orthogonalPerimeter;rounded=0;shadow=0;strokeWidth=1;" parent="1" vertex="1">
          <mxGeometry x="340" y="480" width="10" height="20" as="geometry" />
        </mxCell>
        <mxCell id="9EuFA9lxJS0PykdGBQlW-22" value="" style="html=1;points=[];perimeter=orthogonalPerimeter;" parent="1" vertex="1">
          <mxGeometry x="340" y="520" width="10" height="20" as="geometry" />
        </mxCell>
        <mxCell id="9EuFA9lxJS0PykdGBQlW-23" value="caseReader" style="edgeStyle=orthogonalEdgeStyle;html=1;align=left;spacingLeft=2;endArrow=block;rounded=0;entryX=1;entryY=0;" parent="1" target="9EuFA9lxJS0PykdGBQlW-22" edge="1">
          <mxGeometry relative="1" as="geometry">
            <mxPoint x="345" y="500" as="sourcePoint" />
            <Array as="points">
              <mxPoint x="370" y="500" />
              <mxPoint x="370" y="520" />
            </Array>
          </mxGeometry>
        </mxCell>
        <mxCell id="9EuFA9lxJS0PykdGBQlW-29" value="dispatch" style="html=1;verticalAlign=bottom;endArrow=block;entryX=0.48;entryY=0.725;rounded=0;exitX=0.51;exitY=0.767;exitDx=0;exitDy=0;exitPerimeter=0;entryDx=0;entryDy=0;entryPerimeter=0;" parent="1" source="3nuBFxr9cyL0pnOWT2aG-5" target="9EuFA9lxJS0PykdGBQlW-35" edge="1">
          <mxGeometry relative="1" as="geometry">
            <mxPoint x="425" y="540" as="sourcePoint" />
          </mxGeometry>
        </mxCell>
        <mxCell id="9EuFA9lxJS0PykdGBQlW-24" value="Scanner" style="verticalAlign=bottom;endArrow=block;shadow=0;strokeWidth=1;" parent="1" source="9EuFA9lxJS0PykdGBQlW-19" target="3nuBFxr9cyL0pnOWT2aG-5" edge="1">
          <mxGeometry relative="1" as="geometry">
            <mxPoint x="180" y="490" as="sourcePoint" />
            <mxPoint x="250" y="480" as="targetPoint" />
          </mxGeometry>
        </mxCell>
        <mxCell id="9EuFA9lxJS0PykdGBQlW-35" value=":Interpreter" style="shape=umlLifeline;perimeter=lifelinePerimeter;container=1;collapsible=0;recursiveResize=0;rounded=0;shadow=0;strokeWidth=1;" parent="1" vertex="1">
          <mxGeometry x="160" y="80" width="100" height="630" as="geometry" />
        </mxCell>
        <mxCell id="9EuFA9lxJS0PykdGBQlW-38" value="" style="points=[];perimeter=orthogonalPerimeter;rounded=0;shadow=0;strokeWidth=1;" parent="9EuFA9lxJS0PykdGBQlW-35" vertex="1">
          <mxGeometry x="45" y="460" width="10" height="90" as="geometry" />
        </mxCell>
        <mxCell id="9EuFA9lxJS0PykdGBQlW-41" value="" style="html=1;points=[];perimeter=orthogonalPerimeter;" parent="9EuFA9lxJS0PykdGBQlW-35" vertex="1">
          <mxGeometry x="45" y="570" width="10" height="30" as="geometry" />
        </mxCell>
        <mxCell id="9EuFA9lxJS0PykdGBQlW-42" value="cases(functionInstructions)" style="edgeStyle=orthogonalEdgeStyle;html=1;align=left;spacingLeft=2;endArrow=block;rounded=0;entryX=1;entryY=0;" parent="9EuFA9lxJS0PykdGBQlW-35" target="9EuFA9lxJS0PykdGBQlW-41" edge="1">
          <mxGeometry relative="1" as="geometry">
            <mxPoint x="50" y="550" as="sourcePoint" />
            <Array as="points">
              <mxPoint x="80" y="550" />
            </Array>
          </mxGeometry>
        </mxCell>
        <mxCell id="5q7rxbdqiVcTN_8Q1Ob2-1" value="" style="points=[];perimeter=orthogonalPerimeter;rounded=0;shadow=0;strokeWidth=1;" vertex="1" parent="9EuFA9lxJS0PykdGBQlW-35">
          <mxGeometry x="45" y="470" width="10" height="30" as="geometry" />
        </mxCell>
        <mxCell id="9EuFA9lxJS0PykdGBQlW-30" value="returnFunction()" style="html=1;verticalAlign=bottom;endArrow=open;dashed=1;endSize=8;exitX=0;exitY=0.95;rounded=0;" parent="1" source="9EuFA9lxJS0PykdGBQlW-28" target="9EuFA9lxJS0PykdGBQlW-35" edge="1">
          <mxGeometry relative="1" as="geometry">
            <mxPoint x="425" y="616" as="targetPoint" />
          </mxGeometry>
        </mxCell>
        <mxCell id="5q7rxbdqiVcTN_8Q1Ob2-2" style="edgeStyle=orthogonalEdgeStyle;rounded=0;orthogonalLoop=1;jettySize=auto;html=1;entryX=0.1;entryY=0.08;entryDx=0;entryDy=0;entryPerimeter=0;" edge="1" parent="1" source="5q7rxbdqiVcTN_8Q1Ob2-1" target="9EuFA9lxJS0PykdGBQlW-28">
          <mxGeometry relative="1" as="geometry">
            <Array as="points">
              <mxPoint x="350" y="569" />
              <mxPoint x="350" y="569" />
            </Array>
          </mxGeometry>
        </mxCell>
      </root>
    </mxGraphModel>
  </diagram>
</mxfile>
